<?xml version="1.0" encoding="UTF-8"?>
<svg version="1.1" viewBox="0 0 2000 1880" width="1280" height="1280" xmlns="http://www.w3.org/2000/svg">
    <path transform="translate(1510,456)"
        d="m0 0 5 1 2 2v38l-2 14v7l1 4 21 8 4 5v8 4l1 6 2 4 4 2 17 12 13 11 11 9 14 13 11 9 12 9 20 13 10 8 10 10 5 6 11 9 9 10 6 12 1 4v20l-2 12-6 15-8 11-9 6-18 6h-11l-7-3-8-7-11-11-2 1-4 9-8 8-5 2-11-1-7-3-2-2-5 1-15-5-17-8-13-5-5 1-15-6-11-8-14-9-8-3-9-1-16 2-12 4-14 7-14 10-7 8-8 13-12 22-11 23-10 23-9 16-6 18-2 13v23l5 60 1 11v16l-4 23-4 12-8 15 1 5 11 23 13 27 14 31 15 25 12 18 14 20 14 21 13 21 11 21 11 29 9 17 12 17 11 14 8 10 14 18 10 14 8 10 25 25 11 14 13 21 3 9-5 4-9 2-28 1h-19l-9-2-6-4-6-9-1-4v-10l4-12-1-6-20-3-10-3-5-4-5-7-9-27-16-34-11-21-10-14-11-12-34-34-7-8-12-14-12-13-7-8-18-20-7-8-14-15-11-12-18-18-12-9-16-10-11-7-10-9-7-6-2-1h-13l-7 4-4 5-1 2-3 33-5 43-1 13v20l1 14v28l-2 14-4 15-12 23-7 9-8 7-25 12-16 8-17 12-15 10-11 9-10 8-15 7-11 4-21 1-11 3-9 5-9 4-20 9-28 14-4-1-3-5 2-29 2-15 6-16 6-9 4-3 6-1 12 3 14 7 6 1 5-5 7-11 11-7 20-2 12-5 22-11 16-7 17-10 11-8 6-9 5-12 4-19-2-15-13-46-5-24-3-29-4-19-6-15-3-4-77-1-33-2-32-4-52-10-30-9-38-13-25-10-26-12-2 3-12 58-6 37-9 38-2 12v25l4 35 4 13 10 14 14 15 17 17 8 7 10 9 11 9 8 7 11 9 12 12 13 18 7 10 8 10 9 10 8 9 8 16 9 24 2 5v6l-6 3h-12l-17-2-25-6-13-5-4-5-2-6 1-8 4-9-1-7-8-3h-15l-5-3-9-12-10-16-14-17-11-12-12-12-11-9-15-13-14-12-14-11-16-12-39-26-5-4-2-3v-13l7-50 5-33v-36l-3-15-2-8-14 3-17 7-23 13-16 8-23 11-23 13-20 12-16 8-25 12-15 9-15 10-16 13-10 9-10 10-9 11-8 15-11 27-15 42-12 30-7 16-6 7-12 9-15 14-28 28-8 7-9 8-14 9-5 1-5-6-4-10-4-26v-12l8-24 2-3 5-1 17 2 9-2 4-3-1-11-3-7v-6l7-7h2v-2l5-5 7-8 15-26 6-10 7-20 6-19 11-30 10-36 8-38 5-12 6-5 11-4 30-10 24-11 17-9 14-10 16-13 7-10 5-12 1-7-1-17-7-41-6-33-5-24v-3l-5 2-2 5-6 11-9 11-12 11-5 11-3 14v13l-3 6-4-2-9-18-22-16h-7l-6 9-5 3h-5l-7-5 1-6 3-6-8 5-4 2-4-2-5 5-12 11h-3l-6-2h-6l-4 1h-4l-4 2h-7l-7-6-4-2-7 1-8 2-3 11-3 5-5-2-3-3-11-5h-6l-5 3-6 7-9 1-10-6-9-3-11 3-9 2-6-1-10-2-13-1-18 1-9 2h-9l-5 1-1-1h-10l-2-4h-2l-2-5v-2h-2l2-5-1-6-9-2-19 1-7-1-6-4-2-5-1-7-4 3-4-1-3-3 1-4 7-1 2 1 8-8-1-4-1-3-6 1-3-3 1-4 3-3-1-7-7-8-1-1-10-1-6-3-3-3 2-5 8-4 10-3 19-3 6-3v-6l-4-1-18-1-14-1-2-1 1-6 8-9 1-7 3-20 4-3 20-2 5-4-1-5-14-9-6-3-8-11 1-12v-6l3-5 29-1 1-4-3-7-10-16 2-4 5-1 12 9 5 5 11 10 9 2 18-4 18-6 25-4 19-3 7-4 7-6 12-6 8-2 11-1 6-4 16-17 10-7 9-7 6-3h25l31-3 25 5 31 9 6-1h13l17 7 21 12 19 11 14 8 19 12 18 12 8 3h15l29-5 35-9 49-9 23-3 13-1h26l29 3 47 7 54 6 36 3 38 2h69l14-2 20-6 25-10 19-10 36-26 19-14 14-11 9-8 9-11 9-10 7-8 20-20h2l2-4 10-9 13-12 12-11 18-12 25-12 21-8 25-10 30-10 51-14 21-4 5-3 1-8-1-8v-10l3-10 9-17 5-5h5l3 6 5 22 5 7 8 6 9 1 3 1 9-3 7-8 5-12 5-17 5-10zm36 273-3 1-1 4 2 3 4-3 8 4 5 3h7l1 4 7 3 2 3v-6l1-2-1-9-5-1-3 1-2-2-14-2-2-1zm-4 11 1 2z" />
    <path transform="translate(90,991)" d="m0 0 1 4-5 4-3-2 1-3 3 1z" />
    <path transform="translate(1574,743)" d="m0 0" />
    <path transform="translate(1567,739)" d="m0 0" />
    <path transform="translate(1569,735)" d="m0 0" />
</svg>