<?xml version="1.0" standalone="no"?>
<!DOCTYPE svg PUBLIC "-//W3C//DTD SVG 20010904//EN"
 "http://www.w3.org/TR/2001/REC-SVG-20010904/DTD/svg10.dtd">
<svg version="1.0" xmlns="http://www.w3.org/2000/svg"
 width="900.000000pt" height="699.000000pt" viewBox="0 0 900.000000 699.000000"
 preserveAspectRatio="xMidYMid meet">
<metadata>
</metadata>
<g transform="translate(0.000000,699.000000) scale(0.100000,-0.100000)"
fill="#000000" stroke="none">
<path d="M7527 5683 c-9 -10 -21 -40 -27 -67 -14 -65 -25 -83 -60 -101 -67
-35 -141 -4 -160 67 -21 76 -28 88 -53 88 -17 0 -32 -12 -51 -40 -22 -33 -26
-51 -26 -108 0 -44 -5 -75 -15 -89 -16 -23 -98 -52 -200 -71 -27 -6 -76 -19
-107 -31 -32 -12 -67 -21 -79 -21 -12 0 -38 -9 -58 -19 -20 -11 -52 -22 -72
-26 -21 -3 -48 -14 -60 -24 -13 -10 -40 -22 -59 -26 -19 -4 -51 -15 -70 -25
-19 -10 -52 -22 -72 -28 -42 -11 -112 -61 -197 -138 -31 -29 -88 -81 -128
-117 -39 -35 -101 -100 -137 -143 -70 -84 -127 -144 -137 -144 -3 0 -35 -22
-70 -50 -108 -84 -115 -89 -145 -102 -16 -7 -45 -29 -65 -49 -20 -20 -54 -42
-75 -49 -22 -7 -51 -21 -66 -31 -14 -11 -34 -19 -45 -19 -10 0 -43 -12 -73
-27 l-55 -27 -340 2 c-261 1 -361 5 -430 18 -49 8 -153 22 -230 29 -77 8 -164
21 -194 29 -116 33 -390 29 -496 -8 -22 -7 -80 -17 -130 -21 -49 -4 -106 -14
-125 -22 -47 -20 -236 -63 -278 -63 -36 0 -102 30 -145 66 -16 13 -33 24 -38
24 -4 0 -39 20 -76 45 -37 25 -71 45 -76 45 -9 0 -120 64 -147 86 -25 19 -122
48 -170 50 -68 2 -181 24 -215 42 -35 18 -175 19 -220 2 -16 -6 -48 -8 -72 -4
-39 6 -49 2 -101 -32 -31 -21 -78 -60 -103 -86 -38 -39 -55 -50 -97 -58 -50
-9 -68 -17 -142 -66 -25 -16 -60 -26 -120 -33 -47 -5 -102 -17 -122 -25 -21
-9 -71 -21 -112 -27 -64 -10 -78 -9 -110 6 -20 10 -36 21 -36 25 0 15 -71 62
-85 56 -13 -5 -12 -13 4 -54 24 -60 16 -72 -50 -72 -60 0 -79 -18 -79 -73 0
-52 30 -104 65 -113 53 -13 53 -84 0 -84 -43 0 -83 -48 -94 -110 -4 -30 -12
-63 -16 -72 -8 -20 27 -38 75 -38 41 0 60 -10 60 -29 0 -19 -38 -41 -73 -41
-27 0 -102 -42 -101 -55 1 -6 16 -17 35 -26 47 -23 72 -54 74 -92 1 -17 8 -45
15 -60 13 -27 12 -30 -8 -46 -28 -20 -22 -40 20 -71 24 -17 45 -23 93 -24 69
-1 95 -16 95 -52 0 -48 26 -53 270 -49 178 3 237 0 281 -12 51 -13 59 -13 87
1 35 18 104 21 131 6 15 -7 25 -3 51 21 30 29 35 30 83 24 73 -9 176 -6 213 6
18 5 40 19 49 29 23 26 44 25 99 -1 l44 -22 35 22 c43 26 73 27 87 1 6 -11 26
-26 44 -34 20 -8 37 -24 41 -38 19 -61 55 -54 55 11 1 54 32 113 89 168 28 28
51 58 51 70 0 11 8 27 18 36 15 14 21 14 34 4 21 -17 55 -136 63 -225 3 -41
15 -106 25 -145 42 -156 16 -237 -110 -343 -101 -85 -287 -178 -383 -190 -64
-9 -120 -58 -135 -119 -27 -113 -42 -186 -42 -209 0 -23 -23 -91 -71 -206 -10
-25 -33 -90 -50 -145 -17 -55 -42 -117 -55 -137 -13 -21 -35 -55 -48 -75 -13
-21 -27 -48 -31 -60 -3 -12 -19 -32 -36 -44 -44 -31 -62 -74 -55 -127 8 -62
-3 -72 -80 -72 l-64 0 -27 -42 c-26 -40 -28 -50 -26 -134 1 -94 25 -168 57
-180 29 -11 103 43 220 160 66 67 147 141 178 165 41 31 60 53 69 79 6 20 22
59 35 86 13 28 24 57 24 66 0 8 9 32 20 53 11 20 20 48 20 60 0 13 11 45 25
71 14 26 25 55 25 65 0 10 11 39 25 65 14 26 25 53 25 60 0 13 67 102 106 140
38 39 169 143 199 160 17 9 48 28 70 41 46 27 46 27 140 68 39 16 78 37 88 45
23 20 79 55 132 82 22 11 47 24 55 29 22 14 148 71 156 71 3 0 36 20 73 44
105 70 172 82 215 40 25 -26 26 -30 26 -157 0 -99 -5 -148 -19 -201 -22 -77
-43 -275 -34 -318 3 -15 12 -34 22 -42 14 -15 155 -111 235 -161 17 -11 43
-31 57 -45 14 -14 61 -54 104 -90 155 -130 269 -254 349 -380 16 -26 32 -37
61 -44 87 -18 112 -45 97 -103 -14 -54 -4 -72 58 -103 44 -22 81 -32 147 -38
104 -10 143 -1 143 33 0 13 -4 26 -9 30 -5 3 -15 30 -21 59 -12 60 -58 136
-98 165 -15 10 -54 58 -87 106 -78 114 -131 176 -169 199 -65 39 -295 260
-356 341 -32 43 -39 64 -55 155 -29 167 -30 225 -7 300 37 117 63 236 72 334
5 52 16 112 25 132 8 20 15 49 15 65 0 15 5 40 10 55 10 25 14 26 59 22 29 -3
60 -14 76 -26 15 -12 35 -22 44 -22 9 0 39 -11 66 -25 28 -13 59 -25 70 -25
11 0 43 -11 70 -23 28 -13 68 -27 91 -30 22 -4 61 -15 85 -26 24 -10 79 -22
121 -25 43 -4 97 -14 120 -23 35 -13 101 -18 355 -22 l311 -6 27 -25 c51 -47
66 -93 75 -224 4 -71 14 -136 23 -156 8 -19 18 -57 22 -85 4 -27 17 -68 28
-90 31 -60 31 -204 -1 -260 -12 -22 -22 -45 -22 -52 0 -22 -96 -88 -200 -138
-41 -20 -92 -45 -114 -56 -21 -12 -66 -23 -100 -26 -68 -6 -111 -27 -144 -72
-26 -36 -61 -40 -119 -16 -110 46 -167 -19 -179 -203 -8 -110 -1 -132 41 -132
12 0 30 9 40 20 10 11 34 23 54 26 20 4 45 13 56 19 11 7 31 16 45 20 14 4 39
18 57 31 25 19 50 26 110 30 93 8 182 42 235 90 21 18 54 45 75 58 21 14 56
39 78 55 57 43 119 77 161 91 20 7 52 23 72 36 19 13 38 24 42 24 15 0 94 137
112 194 6 17 11 148 13 291 2 220 5 266 19 300 11 24 20 80 23 142 l6 103 43
25 c23 14 49 25 58 25 8 0 38 -20 65 -44 27 -24 80 -61 118 -82 67 -38 195
-157 323 -303 30 -34 76 -84 103 -111 26 -26 47 -52 47 -57 0 -5 25 -36 57
-69 145 -152 207 -214 213 -214 15 0 127 -148 154 -205 15 -33 35 -71 42 -85
45 -83 78 -161 85 -204 10 -61 53 -101 119 -111 76 -12 80 -16 80 -98 0 -82 7
-96 65 -126 56 -30 215 -30 263 -1 21 13 32 28 32 42 0 39 -95 172 -170 239
-58 53 -150 166 -150 186 0 7 -100 124 -119 140 -8 7 -24 28 -35 47 -12 19
-36 56 -54 82 -18 26 -47 88 -63 138 -17 50 -38 102 -48 116 -9 14 -28 47 -41
74 -12 26 -37 67 -54 90 -17 22 -48 67 -69 98 -21 31 -42 60 -47 63 -6 4 -19
23 -30 43 -12 20 -28 49 -38 63 -49 73 -62 95 -62 105 0 6 -7 17 -15 24 -8 7
-20 31 -26 53 -6 23 -19 52 -30 65 -10 14 -19 32 -19 41 0 9 -11 32 -23 51
-13 19 -27 48 -31 64 -4 16 -16 41 -27 54 -26 33 -25 92 2 126 35 45 43 157
30 441 -14 309 -11 337 46 439 25 43 51 95 58 115 7 20 20 50 29 66 9 17 16
37 16 46 0 9 6 21 13 27 7 6 30 45 52 87 51 99 118 158 225 203 73 30 148 37
180 18 14 -8 41 -22 60 -31 19 -9 44 -24 55 -35 26 -23 129 -60 172 -60 20 0
42 -9 58 -24 14 -13 41 -27 61 -30 19 -4 55 -16 80 -27 25 -10 52 -19 59 -19
7 0 35 17 62 39 l49 38 48 -27 c26 -15 53 -33 59 -39 35 -35 168 16 221 85 31
40 35 54 41 130 9 109 -2 148 -59 205 -75 74 -90 89 -131 131 -22 22 -58 49
-80 60 -65 31 -123 78 -293 236 -26 24 -60 51 -77 59 -57 30 -95 75 -95 114 0
41 -20 64 -78 89 l-37 16 0 135 c0 113 -2 134 -16 137 -8 1 -23 -5 -32 -15z
m327 -1263 c43 -16 22 -40 -35 -40 -42 0 -49 3 -49 19 0 30 37 39 84 21z"/>
</g>
</svg>
