<?xml version="1.0" encoding="UTF-8"?>
<svg version="1.1" viewBox="0 0 2300 1900" width="1280" height="1280" xmlns="http://www.w3.org/2000/svg">
    <path transform="translate(1685,483)"
        d="m0 0h9l2 2v8l-3 15v3l2-1 6-1 3-1 2-6 8-13 2-2 5 1 2 2v7l-7 27-4 11-1 12 8 10 8 11 9 11 12 12 9 11 12 13 9 11 9 10 8 10 12 14 14 17 10 11 7 8 18 20 10 13 4 8v9l-5 12-9 19-9 12-7 7-10 7-11 5h-10l-11-4-9-7-5-6-3-11-13-8-13-5-19-5-14-7-10-7-11-6-12-5-8-2h-16l-15 5-16 8-3 7-11 42-14 46-8 23-15 37-10 30-4 19v8l4 20 1 10-2 8-4 12-11 20-10 15-19 28-16 20-6 7h-2l-2 4-3 3 2 6 16 35 11 21 14 23 12 17 9 12 11 15 8 14 2 9v25l-2 19-4 8-8 10-12 16-8 12-9 15-9 16-6 10-13 25-14 21-9 10-16 12-13 10-12 11-12 13-15 16-9 10-7 7-4 3h-5l-6-9-8-19-2-7v-10l5-24 6-16 5-4 7-2 26 1 5-3 6-13 4-10 8-10 10-10 8-7 12-13 14-19 12-18 10-18 6-16 1-5v-11l-5-14-6-9-9-10-11-9-13-12-8-7-10-9-11-9-16-15-10-9-11-8-8-3h-6l-6 7-5 10-5 22-7 40-8 68-3 32-3 14-11 25-6 10-9 10-13 8-16 10-13 10-14 12-10 9-11 9-11 10-11 9-10 9-16 11-11 4-16 4-11 5-20 10-20 12-11 7-16 8-5-1-3-6v-12l3-31 4-11 7-11 6-7 10-7 4-2h8l11 7 3 2 5-1 6-7 4-6 25-12 24-14 22-13 18-12 13-10 9-8 8-11 4-11 3-19v-32l-8-110-2-27-4-13-7-11-10-10-6-3-8-1h-80l-25-3-36-7-40-10-49-14-27-9-21-9-5-3-4 19-7 11-10 13-10 15-12 21-11 20-12 17-12 13-8 10-9 13-8 14-8 16-6 16-1 4v7l4 11 7 11 13 15 15 16 62 62 9 11 3 6v15l5 35 3 18 2 21v30l-1 10-4 5-3 1-10-4-16-10-12-9-9-9-8-13-2-7v-6l9-11 3-6 1-8-8-6-12-6-6-10v-10l-5-9-9-11-11-13-7-8-18-20-46-46-8-7-15-14-8-7-17-16-12-11-1-4 6-10 10-13 12-14 7-10 3-9-10 4-16 9-16 8-19 10-13 10-5 4-10 13-3 10-1 4v11l3 15 9 27 15 36 12 29 11 24 4 13v9l-8 16-11 19-11 23-12 20-13 18-14 17-10 10-5 1-5-5-4-10-6-31v-9l3-17 6-10 7-6 10-4 4-4 1-9-4-12 1-7 1-4v-11l-4-30-9-25-10-24-9-21-18-39-13-25-9-21-4-12 1-9 5-6 14-10 19-10 25-16 16-12 11-8 8-7 9-12 9-15 1-3v-8l-7-14-12-18-14-26-12-27-11-28-2-5-3 1-4 8-4 9-10 14-7 9-7 8-17 13-12 9-15 10-14 9-13 9-13 5-12 4-13 10-4 2-2-2v-3l-6-2-1-1-10 1-11 4-8-1-12 5-14 7-20 7-24 8-18 5-12 6h-10l-9-5-6 1-13 5-22 3-10 1h-32l-17-2-16-3-7-2h-13l-4 1-8-2-8-1-15-4-1-3-4 2-8-4-4-4 1-2 8-1 7 2 9-1 9-3-2-4-5-4-19-11-2-5-8-6v-3l11-3 4-2-2-4-8-8-5-4-2-11 1-9v-11l-1-1v-7l1-1h19l7 1 1-4-14-13-7-5-1-2v-6l-3-1v-6l5-4 4-2 21 1 2-4-1-11-1-4v-10l3-2h7 3l9 2 5 4 3 1 1-4 5-3h6l9 5 8-4 3-4-1-9 1-5 6 1 7 1h5l5 1 4 1 2 2 7-1 3-2 5 1 10 5 3 3 7 1-1-8-4-11-2-4 1-4 3-2h5l-2-3v-3l7-6 7 1 6 5 5 5 14 7 7 5 11 3 5 7 6 5 3 4 7 2 2 3 6-1 6 3 4-1 19-7 10-3 1-1h7l9 8 4 6 9 3 20-2 12-4 11-8 11-13 9-12 9-11 9-10 12-12 13-10 15-14 8-9 9-11 10-8 10-5 16-5 18-5 16-6 28-14 22-12 28-13 27-11 22-6 38-7 35-4h44l25 3 50 8 28 5 28 4 49 5 31 2h38l23-2 26-6 29-10 19-8 24-11 6-5 7-14 10-8 14-10 17-17 7-4 6-9 9-20 8-16 3-7 2-9 7-11 1-4-2-6 1-7 9-4h2l-1-5-4-9 1-4 4-3h6l2 1 6 1 8 1 5 1 6-2-2-7-3-6v-5l3-2h5l4 3 1-3 9 2 6 3h11l1-4v-11l10-4v2l9-4 4-11 4-4h9l10 4 8 4 9 3 13 6 5-2 8-13 11-7 8-7 10-6 3-3 7 1 11 7 7 4 9-2 6-1 21-7 12-11 5-6 11-24 4-6z" />
</svg>