<?xml version="1.0" standalone="no"?>
<!DOCTYPE svg PUBLIC "-//W3C//DTD SVG 20010904//EN"
 "http://www.w3.org/TR/2001/REC-SVG-20010904/DTD/svg10.dtd">
<svg version="1.0" xmlns="http://www.w3.org/2000/svg"
 width="900.000000pt" height="741.000000pt" viewBox="0 0 900.000000 741.000000"
 preserveAspectRatio="xMidYMid meet">
<metadata>
</metadata>
<g transform="translate(0.000000,741.000000) scale(0.100000,-0.100000)"
fill="#000000" stroke="none">
<path d="M7177 5667 c-8 -13 -22 -39 -30 -58 -19 -43 -65 -92 -108 -115 -42
-22 -141 -24 -186 -4 -29 13 -35 12 -76 -11 -58 -32 -91 -60 -106 -88 -12 -21
-18 -23 -59 -17 -25 3 -69 18 -99 32 -60 28 -85 25 -101 -11 -7 -14 -23 -30
-37 -35 -14 -5 -33 -23 -43 -40 -16 -27 -21 -29 -87 -32 -66 -3 -70 -4 -74
-28 -4 -32 -17 -40 -63 -40 -53 0 -68 -9 -68 -39 0 -15 -7 -36 -15 -47 -8 -10
-15 -31 -15 -46 0 -15 -4 -29 -9 -33 -5 -3 -15 -22 -22 -43 -6 -20 -33 -82
-60 -138 -39 -82 -55 -106 -88 -127 -22 -15 -47 -40 -56 -56 -9 -18 -26 -32
-43 -36 -35 -7 -77 -50 -86 -87 -6 -27 -62 -64 -126 -83 -14 -4 -33 -14 -42
-22 -10 -9 -34 -19 -55 -24 -21 -4 -58 -14 -83 -23 -86 -29 -234 -49 -332 -43
-154 8 -370 27 -428 37 -30 6 -84 15 -120 21 -36 5 -112 20 -170 32 -148 31
-406 30 -531 -1 -48 -12 -102 -22 -120 -22 -19 -1 -52 -9 -74 -20 -22 -11 -45
-19 -52 -20 -11 0 -78 -31 -155 -71 -20 -10 -42 -19 -49 -19 -7 0 -20 -6 -28
-14 -30 -27 -199 -105 -240 -112 -81 -13 -215 -81 -226 -114 -7 -23 -105 -122
-153 -154 -24 -16 -70 -64 -103 -105 -102 -131 -113 -143 -154 -163 -24 -13
-60 -21 -91 -22 -44 0 -57 4 -88 32 -40 35 -62 36 -147 7 -54 -19 -109 -5
-167 44 -27 22 -56 41 -64 41 -8 0 -23 9 -33 20 -10 11 -27 22 -39 26 -11 4
-33 16 -48 27 -14 11 -33 17 -41 14 -23 -9 -47 -66 -47 -110 0 -36 -2 -39 -22
-32 -13 4 -61 11 -108 16 -83 10 -85 9 -105 -14 -32 -39 -55 -45 -145 -42 -48
2 -90 -1 -98 -7 -6 -6 -12 -25 -12 -43 0 -38 -21 -60 -70 -72 -45 -12 -51 -45
-15 -96 32 -48 31 -55 -2 -63 -46 -11 -53 -22 -53 -89 0 -50 4 -65 21 -81 16
-15 20 -26 15 -53 -7 -43 16 -84 61 -108 40 -21 43 -50 7 -63 -14 -6 -24 -16
-22 -23 7 -20 99 -46 168 -47 36 0 106 -7 155 -16 95 -17 164 -14 286 11 37 8
89 11 120 8 43 -4 64 -1 95 15 21 11 59 23 84 27 25 4 54 13 66 20 12 8 38 17
58 20 20 4 39 11 42 17 3 5 29 19 58 32 43 19 67 23 137 21 71 -2 91 1 129 21
25 13 65 32 90 43 25 11 83 48 130 81 47 33 101 71 121 85 45 29 134 140 143
178 16 67 72 31 100 -65 19 -66 98 -221 138 -271 41 -52 50 -90 34 -137 -15
-45 -80 -130 -116 -153 -14 -9 -52 -36 -85 -61 -33 -24 -97 -63 -141 -87 -83
-43 -114 -76 -114 -121 0 -40 26 -110 69 -185 23 -40 41 -77 41 -82 0 -11 50
-111 66 -131 6 -8 14 -28 18 -45 7 -29 27 -78 66 -160 21 -43 44 -172 40 -220
-4 -42 -3 -75 5 -111 6 -28 2 -33 -49 -72 -66 -50 -72 -70 -62 -211 10 -135
41 -163 109 -98 42 40 164 225 173 263 4 16 18 43 31 60 12 17 23 34 23 38 0
4 9 19 20 33 28 36 27 121 -1 177 -12 22 -32 62 -45 87 -13 26 -24 54 -24 63
0 14 -17 56 -61 151 -26 58 -50 123 -61 175 -25 106 47 204 205 279 47 23 89
46 92 51 3 6 17 10 31 10 38 0 30 -35 -19 -94 -56 -65 -70 -92 -63 -120 3 -13
43 -56 88 -97 112 -101 390 -379 460 -461 43 -49 60 -79 68 -115 11 -49 43
-93 67 -93 7 0 18 -11 24 -24 9 -18 6 -34 -11 -74 -20 -47 -21 -55 -9 -84 16
-39 86 -118 105 -118 7 0 26 -11 42 -25 71 -60 108 -11 98 128 -4 49 -11 110
-16 135 -4 26 -13 91 -19 145 -6 55 -16 109 -22 120 -7 12 -94 105 -194 207
-228 233 -245 255 -245 329 0 39 6 65 20 86 11 17 20 37 20 45 0 18 73 123
152 217 31 38 73 100 93 138 53 102 73 135 110 180 18 22 44 64 59 93 23 45
30 52 56 52 16 0 53 -11 82 -24 61 -28 177 -66 201 -66 10 0 50 -11 89 -25 39
-14 81 -25 93 -25 13 0 41 -7 64 -15 68 -24 278 -45 447 -45 155 0 159 0 197
-27 60 -42 87 -96 87 -179 1 -38 7 -123 15 -189 41 -342 42 -456 5 -543 -36
-82 -141 -172 -295 -252 -27 -14 -68 -37 -90 -51 -22 -14 -54 -31 -72 -38 -18
-7 -39 -24 -49 -38 -17 -27 -16 -27 -120 -7 -27 5 -38 0 -72 -30 -49 -45 -70
-102 -79 -209 -5 -62 -3 -81 8 -88 26 -17 54 -9 112 31 86 60 217 128 262 136
22 4 61 19 87 34 49 27 57 34 213 176 50 44 122 102 160 127 142 93 167 123
214 260 25 70 30 102 35 222 3 77 10 155 15 173 5 18 15 76 21 129 15 122 44
217 73 238 49 34 85 17 202 -99 33 -32 110 -101 171 -152 69 -58 117 -106 125
-126 8 -18 14 -64 14 -103 -1 -58 -6 -78 -30 -120 -50 -88 -165 -234 -217
-277 -36 -31 -60 -63 -85 -113 -36 -77 -45 -82 -130 -84 -71 -1 -98 -33 -107
-128 -12 -129 17 -213 74 -213 21 0 23 2 105 96 93 107 156 166 213 199 28 17
65 48 80 70 29 39 82 144 82 160 0 5 6 16 14 24 7 9 28 42 45 75 33 63 78 129
147 212 l44 55 0 107 c0 118 0 118 -89 237 -72 97 -122 176 -159 250 -106 211
-106 209 -66 246 24 21 123 148 149 190 6 9 23 36 39 60 75 111 93 175 76 267
-13 71 1 174 31 234 11 21 19 43 19 50 0 7 7 27 16 43 23 44 69 170 94 255 12
41 30 102 40 135 10 33 21 81 25 107 5 37 14 54 44 81 49 44 141 66 204 47 50
-14 111 -46 150 -77 16 -13 41 -23 55 -24 15 0 54 -10 87 -23 51 -20 65 -31
99 -81 50 -73 90 -92 153 -75 55 16 138 96 153 148 6 20 17 46 25 56 23 31 18
78 -12 118 -26 33 -126 149 -169 195 -10 12 -46 54 -79 93 -33 40 -107 127
-165 192 -169 192 -200 235 -200 277 1 20 7 47 15 61 16 28 20 120 5 120 -5 0
-14 -9 -20 -20 -6 -11 -21 -20 -34 -20 -18 0 -25 8 -32 33 -12 41 -45 48 -67
14z"/>
</g>
</svg>
