<?xml version="1.0" encoding="UTF-8"?>
<svg version="1.1" viewBox="0 0 2048 1899" width="1280" height="1280" xmlns="http://www.w3.org/2000/svg">
<path transform="translate(1535,319)" d="m0 0 4 1 4 7 5 16 3 14v13l-5 9-5 7 1 5 4 6 8 4 4 6-2 4-7 5 2 5 15 11 8 7 6 8 1 8-4 10-3 8v10l3 14 8 24 10 17 8 10 11 12 6 10 3 8v18l-5 13-10 16-9 10-10 6-9 3h-11l-7-4-9-14-7-12-5-4-15-7-21-9-20-8-28-11-9-3-4 5-11 19-16 41-11 29-11 28-11 26-16 42-7 26-1 7 1 14 6 16 2 6v18l-2 14-10 37-6 17-8 16-9 14-10 11-8 4-3 3-2 4-4 23-8 28-23 72-7 25-2 10-2 32-6 36-8 40-4 34-1 17v40l3 32 3 12 6 12 9 11 13 13 14 22 8 11 3 6-1 4-5 1-24 1-27-1-7-3-8-11-5-7v-7l3-6 1-9-4-8-10-13-18-18-1-2v-13l4-47 2-40v-40l-2-18-2-10-1-19 1-12 1-92h-3l-3 10-15 47-9 36-8 30-6 16-5 11-8 22-8 32-4 25-4 42v19l3 10 10 18 6 10 8 16 7 11 1 7-3 2-5 1-16 1h-19l-11-1-7-4-7-7-7-10-2-5 1-6 9-9 3-4 1-4v-9l-7-14-12-14-1-3v-9l5-23 11-40 6-30 6-49 7-55 7-49 7-67 2-28-4 1h-33l-79-1-31-3-41-7-26-6-23-8-33-14-30-13-17-6h-7l-9 13-7 7-10-1-16-12-6-3h-5l-4 5-12 21-8 10-11 9-16 16-7 10-5 14-9 32-10 31-14 45-2 8v20l-5 23-5 21-1 7v22l6 36 8 34 7 31 4 18 5 12 7 11 12 14 12 16 14 21 5 8 1 7-9 1h-42l-13-2-8-7-8-9-3-6-1-6 1-9 2-6v-6l-5-7-13-7-6-9-13-82-12-64-4-24-3-3-2-1-1 5-7 25-7 35-4 10h-2l-1-10v-24l3-31-8-2-5 30-7 33-8 32-6 32-7 43v19l5 15 10 18 9 16 5 11-1 3-9 1-33 1-14-3-6-3-18-18-2-5 4-6 3-3h2l2-5 3-7 1-18-2-10-4-6-3-3-2-10 5-17 2-21 1-19v-22l-1-9 10-33 7-26v-11h-3l-9 14-4 15-6 26-7 19-7 11-7 9-4 7h-1v-17l-2-14v-20l7-38 2-11-5 1-2 10-1 8 3 2h-4l-2 13-3 5h-8v-10l2-17v-24l-4-5-2-1-1 10 1 2 1 43 1 2v35l-2 17-4 25-3 29-3 10-3-1-1-6v-58l-3-12-5-10-1-4-3 1-1 6 2 10v12l1 9-4-2-2-6-1-21 3-13 2-18 5-11 1-10v-67l1-4 1-24-2-18-6-20-5-20-2-18v-17l3-36 8-65 2-125 3-29 4-22 6-21 10-24 9-16 10-13 13-13 14-9 11-5 18-5 15-3h68l16-5 23-9 33-10 25-6 30-5 30-3h27l19 3 36 10 25 8 43 12 35 7 29 4 27 2h31l18-3 16-5 23-11 16-10 5-4 7-8 12-9 24-14 14-9 7-7 10-13 11-12 8-12 7-10 10-13 11-13 9-10 31-31h2l1-3h2v-2l8-7 9-8 14-11 7-7 14-10 21-10 23-7 15-9 21-6 21-5 18-2 3-2 1-3 2-27 5-13 6-11 5-4 8-4 2 2 1 10 1 22 3 6 7 2 13 2 4 2 8 1 5-2 10-25 5-15 4-6zm-9 109-5 5 6 12 12 17 10 13 10 10v-3l-6-10-14-26-5-12-5-6zm34 57m-981 205-12 7-9 9-7 10-9 16-3 7-2 9v81l1 21v43l-5 61 1 18 4 16 6 16 16 27 7 10 4-1 5-6 8-16 9-23 2-8 1-13-4-17-8-20-14-30-9-21-6-20-6-36-2-23v-38l4-22 5-15 7-13 13-15 8-11v-3zm-60 356 1 9 6 26 3 10 4 2 6-1 4-5 1-2v-8l-7-16-6-9-7-6zm-32 109-3 3 1 3v10l-2 15-1 10 3 3 2 3 4-5 1-5v-14l-1-16-2-7z"/>
<path transform="translate(480,1286)" d="m0 0 1 3-1 4v39l-3 25-4 12 1 1 4-1-3 6-3 1-3-2-4-48-1-20 5-8z"/>
<path transform="translate(451,1291)" d="m0 0h1l1 5 1 23v40l2 7 2 4-6-2-3-2-1-4-1-24v-22l2-17 1-7z"/>
<path transform="translate(574,1272)" d="m0 0 1 2-7 16-2 1 3-12z"/>
<path transform="translate(447,1282)" d="m0 0h1v14l-1 5h-1v-13z"/>
<path transform="translate(449,1256)" d="m0 0 2 1-1 4h-2z"/>
<path transform="translate(447,1270)" d="m0 0h1v6h-1z"/>
<path transform="translate(445,1252)" d="m0 0 2 1-2 2z"/>
<path transform="translate(477,1376)" d="m0 0"/>
</svg>
