<?xml version="1.0" standalone="no"?>
<!DOCTYPE svg PUBLIC "-//W3C//DTD SVG 20010904//EN"
 "http://www.w3.org/TR/2001/REC-SVG-20010904/DTD/svg10.dtd">
<svg version="1.0" xmlns="http://www.w3.org/2000/svg"
 width="300.000000pt" height="317.000000pt" viewBox="0 0 300.000000 317.000000"
 preserveAspectRatio="xMidYMid meet">
<metadata>
</metadata>
<g transform="translate(0.000000,317.000000) scale(0.050000,-0.050000)"
fill="#000000" stroke="none">
<path d="M4873 4961 c-45 -111 -149 -115 -177 -6 -27 105 -74 79 -95 -53 -10
-64 -20 -73 -111 -99 -55 -15 -127 -40 -160 -55 -33 -15 -91 -40 -130 -55 -94
-37 -369 -298 -492 -464 -91 -125 -136 -163 -404 -339 -152 -100 -468 -82
-864 50 -179 60 -445 47 -660 -32 -104 -38 -199 -57 -310 -62 -398 -17 -508
-189 -509 -796 -1 -110 -11 -291 -24 -403 -21 -176 -19 -220 10 -342 29 -119
32 -176 15 -381 -14 -177 -13 -258 4 -303 31 -83 62 -66 74 41 13 114 46 113
63 -2 34 -228 45 -273 80 -323 40 -58 48 -139 18 -195 -36 -67 27 -122 140
-122 114 0 116 4 50 134 -41 82 -46 110 -30 177 10 43 19 111 19 149 1 39 19
106 40 150 21 44 39 114 39 155 1 86 40 104 43 20 2 -54 2 -54 23 11 22 67 81
84 88 24 6 -53 50 -327 69 -431 11 -57 36 -116 59 -135 22 -19 39 -59 39 -91
0 -82 56 -123 167 -123 126 0 120 46 -27 210 -149 166 -178 658 -60 1030 22
72 51 165 65 208 13 44 56 111 96 150 39 40 87 97 106 127 34 55 35 55 97 23
58 -30 65 -30 87 0 34 46 87 40 235 -26 215 -97 350 -122 644 -122 178 0 272
-8 282 -23 21 -35 10 -265 -23 -434 -16 -84 -29 -189 -29 -233 0 -44 -14 -143
-32 -220 -77 -345 -75 -326 -41 -379 39 -59 42 -114 9 -147 -52 -52 20 -124
124 -124 124 0 127 7 59 129 -87 154 -69 454 40 668 22 45 41 101 41 126 0 46
33 163 62 222 10 19 18 48 18 65 0 16 8 30 17 30 23 0 45 -604 30 -818 -11
-166 -10 -174 41 -228 28 -31 52 -79 52 -106 0 -98 33 -128 141 -128 126 0
122 47 -16 197 -89 97 -110 315 -54 583 18 83 37 204 43 270 6 66 41 214 78
329 37 115 68 228 68 252 0 24 31 77 69 117 103 108 155 293 139 490 -11 140
-7 164 52 302 35 83 68 168 74 190 7 22 18 49 26 60 8 11 26 63 42 115 40 139
103 212 156 180 23 -14 50 -25 61 -25 58 0 236 -103 257 -149 42 -92 154 -69
211 43 47 91 41 130 -29 218 -105 132 -146 272 -96 322 17 17 9 37 -30 75 -28
29 -52 70 -52 91 0 21 -9 43 -20 50 -13 8 -16 51 -9 106 19 146 -32 201 -78
85z m43 -325 c29 -29 32 -76 4 -76 -11 0 -20 14 -20 30 0 17 -9 30 -20 30 -11
0 -20 9 -20 20 0 27 27 25 56 -4z m-3413 -971 c-112 -159 -105 -401 21 -718
l84 -209 -38 -110 c-44 -131 -74 -133 -142 -12 -47 83 -48 96 -45 510 4 432
12 486 88 562 52 52 75 36 32 -23z m-102 -1258 c22 -57 -1 -102 -39 -78 -28
17 -29 131 -2 131 12 0 30 -24 41 -53z m-153 -602 c-18 -103 -48 -130 -48 -43
0 59 28 118 55 118 4 0 1 -34 -7 -75z"/>
</g>
</svg>
